<svg width="146" height="32" viewBox="0 0 146 32" fill="none" xmlns="http://www.w3.org/2000/svg">
<path d="M13.9432 8.125C13.8371 7.13258 13.3902 6.35985 12.6023 5.80682C11.822 5.25379 10.8068 4.97727 9.55682 4.97727C8.67803 4.97727 7.92424 5.10985 7.29545 5.375C6.66667 5.64015 6.18561 6 5.85227 6.45454C5.51894 6.90909 5.34849 7.42803 5.34091 8.01136C5.34091 8.49621 5.45076 8.91667 5.67045 9.27273C5.89773 9.62879 6.20455 9.93182 6.59091 10.1818C6.97727 10.4242 7.4053 10.6288 7.875 10.7955C8.3447 10.9621 8.81818 11.1023 9.29545 11.2159L11.4773 11.7614C12.3561 11.9659 13.2008 12.2424 14.0114 12.5909C14.8295 12.9394 15.5606 13.3788 16.2045 13.9091C16.8561 14.4394 17.3712 15.0795 17.75 15.8295C18.1288 16.5795 18.3182 17.4583 18.3182 18.4659C18.3182 19.8295 17.9697 21.0303 17.2727 22.0682C16.5758 23.0985 15.5682 23.9053 14.25 24.4886C12.9394 25.0644 11.3523 25.3523 9.48864 25.3523C7.67803 25.3523 6.10606 25.072 4.77273 24.5114C3.44697 23.9508 2.40909 23.1326 1.65909 22.0568C0.916667 20.9811 0.515152 19.6705 0.454545 18.125H4.60227C4.66288 18.9356 4.91288 19.6098 5.35227 20.1477C5.79167 20.6856 6.36364 21.0871 7.06818 21.3523C7.7803 21.6174 8.57576 21.75 9.45455 21.75C10.3712 21.75 11.1742 21.6136 11.8636 21.3409C12.5606 21.0606 13.1061 20.6742 13.5 20.1818C13.8939 19.6818 14.0947 19.0985 14.1023 18.4318C14.0947 17.8258 13.9167 17.3258 13.5682 16.9318C13.2197 16.5303 12.7311 16.197 12.1023 15.9318C11.4811 15.6591 10.7538 15.4167 9.92045 15.2045L7.27273 14.5227C5.35606 14.0303 3.84091 13.2841 2.72727 12.2841C1.62121 11.2765 1.06818 9.93939 1.06818 8.27273C1.06818 6.90151 1.43939 5.70076 2.18182 4.67045C2.93182 3.64015 3.95076 2.84091 5.23864 2.27273C6.52652 1.69697 7.98485 1.40909 9.61364 1.40909C11.2652 1.40909 12.7121 1.69697 13.9545 2.27273C15.2045 2.84091 16.1856 3.63258 16.8977 4.64773C17.6098 5.6553 17.9773 6.81439 18 8.125H13.9432ZM33.0199 17.6591V7.54545H37.1335V25H33.1449V21.8977H32.9631C32.5691 22.875 31.9214 23.6742 31.0199 24.2955C30.1259 24.9167 29.0237 25.2273 27.7131 25.2273C26.5691 25.2273 25.5578 24.9735 24.679 24.4659C23.8078 23.9508 23.1259 23.2045 22.6335 22.2273C22.1411 21.2424 21.8949 20.053 21.8949 18.6591V7.54545H26.0085V18.0227C26.0085 19.1288 26.3116 20.0076 26.9176 20.6591C27.5237 21.3106 28.3191 21.6364 29.304 21.6364C29.91 21.6364 30.4972 21.4886 31.0653 21.1932C31.6335 20.8977 32.0994 20.4583 32.4631 19.875C32.8343 19.2841 33.0199 18.5455 33.0199 17.6591ZM41.3636 31.5455V7.54545H45.4091V10.4318H45.6477C45.8598 10.0076 46.1591 9.55682 46.5455 9.07955C46.9318 8.5947 47.4545 8.18182 48.1136 7.84091C48.7727 7.49242 49.6136 7.31818 50.6364 7.31818C51.9848 7.31818 53.2008 7.66288 54.2841 8.35227C55.375 9.03409 56.2386 10.0455 56.875 11.3864C57.5189 12.7197 57.8409 14.3561 57.8409 16.2955C57.8409 18.2121 57.5265 19.8409 56.8977 21.1818C56.2689 22.5227 55.4129 23.5455 54.3295 24.25C53.2462 24.9545 52.0189 25.3068 50.6477 25.3068C49.6477 25.3068 48.8182 25.1402 48.1591 24.8068C47.5 24.4735 46.9697 24.072 46.5682 23.6023C46.1742 23.125 45.8674 22.6742 45.6477 22.25H45.4773V31.5455H41.3636ZM45.3977 16.2727C45.3977 17.4015 45.5568 18.3902 45.875 19.2386C46.2008 20.0871 46.6667 20.75 47.2727 21.2273C47.8864 21.697 48.6288 21.9318 49.5 21.9318C50.4091 21.9318 51.1705 21.6894 51.7841 21.2045C52.3977 20.7121 52.8598 20.0417 53.1705 19.1932C53.4886 18.3371 53.6477 17.3636 53.6477 16.2727C53.6477 15.1894 53.4924 14.2273 53.1818 13.3864C52.8712 12.5455 52.4091 11.8864 51.7955 11.4091C51.1818 10.9318 50.4167 10.6932 49.5 10.6932C48.6212 10.6932 47.875 10.9242 47.2614 11.3864C46.6477 11.8485 46.1818 12.4962 45.8636 13.3295C45.553 14.1629 45.3977 15.1439 45.3977 16.2727ZM61.3636 31.5455V7.54545H65.4091V10.4318H65.6477C65.8598 10.0076 66.1591 9.55682 66.5455 9.07955C66.9318 8.5947 67.4545 8.18182 68.1136 7.84091C68.7727 7.49242 69.6136 7.31818 70.6364 7.31818C71.9848 7.31818 73.2008 7.66288 74.2841 8.35227C75.375 9.03409 76.2386 10.0455 76.875 11.3864C77.5189 12.7197 77.8409 14.3561 77.8409 16.2955C77.8409 18.2121 77.5265 19.8409 76.8977 21.1818C76.2689 22.5227 75.4129 23.5455 74.3295 24.25C73.2462 24.9545 72.0189 25.3068 70.6477 25.3068C69.6477 25.3068 68.8182 25.1402 68.1591 24.8068C67.5 24.4735 66.9697 24.072 66.5682 23.6023C66.1742 23.125 65.8674 22.6742 65.6477 22.25H65.4773V31.5455H61.3636ZM65.3977 16.2727C65.3977 17.4015 65.5568 18.3902 65.875 19.2386C66.2008 20.0871 66.6667 20.75 67.2727 21.2273C67.8864 21.697 68.6288 21.9318 69.5 21.9318C70.4091 21.9318 71.1705 21.6894 71.7841 21.2045C72.3977 20.7121 72.8598 20.0417 73.1705 19.1932C73.4886 18.3371 73.6477 17.3636 73.6477 16.2727C73.6477 15.1894 73.4924 14.2273 73.1818 13.3864C72.8712 12.5455 72.4091 11.8864 71.7955 11.4091C71.1818 10.9318 70.4167 10.6932 69.5 10.6932C68.6212 10.6932 67.875 10.9242 67.2614 11.3864C66.6477 11.8485 66.1818 12.4962 65.8636 13.3295C65.553 14.1629 65.3977 15.1439 65.3977 16.2727ZM85.4773 1.72727V25H81.3636V1.72727H85.4773ZM89.7074 25V7.54545H93.821V25H89.7074ZM91.7756 5.06818C91.1241 5.06818 90.5634 4.85227 90.0938 4.42045C89.6241 3.98106 89.3892 3.45454 89.3892 2.84091C89.3892 2.2197 89.6241 1.69318 90.0938 1.26136C90.5634 0.821969 91.1241 0.602272 91.7756 0.602272C92.4347 0.602272 92.9953 0.821969 93.4574 1.26136C93.9271 1.69318 94.1619 2.2197 94.1619 2.84091C94.1619 3.45454 93.9271 3.98106 93.4574 4.42045C92.9953 4.85227 92.4347 5.06818 91.7756 5.06818ZM105.778 25.3409C104.028 25.3409 102.517 24.9773 101.244 24.25C99.9792 23.5152 99.0057 22.4773 98.3239 21.1364C97.642 19.7879 97.3011 18.2008 97.3011 16.375C97.3011 14.5795 97.642 13.0038 98.3239 11.6477C99.0133 10.2841 99.9754 9.22348 101.21 8.46591C102.445 7.70076 103.896 7.31818 105.562 7.31818C106.638 7.31818 107.653 7.49242 108.608 7.84091C109.57 8.18182 110.419 8.71212 111.153 9.43182C111.896 10.1515 112.479 11.0682 112.903 12.1818C113.328 13.2879 113.54 14.6061 113.54 16.1364V17.3977H99.233V14.625H109.597C109.589 13.8371 109.419 13.1364 109.085 12.5227C108.752 11.9015 108.286 11.4129 107.688 11.0568C107.097 10.7008 106.407 10.5227 105.619 10.5227C104.778 10.5227 104.04 10.7273 103.403 11.1364C102.767 11.5379 102.271 12.0682 101.915 12.7273C101.566 13.3788 101.388 14.0947 101.381 14.875V17.2955C101.381 18.3106 101.566 19.1818 101.938 19.9091C102.309 20.6288 102.828 21.1818 103.494 21.5682C104.161 21.947 104.941 22.1364 105.835 22.1364C106.434 22.1364 106.975 22.053 107.46 21.8864C107.945 21.7121 108.366 21.4583 108.722 21.125C109.078 20.7917 109.347 20.3788 109.528 19.8864L113.369 20.3182C113.127 21.3333 112.665 22.2197 111.983 22.9773C111.309 23.7273 110.445 24.3106 109.392 24.7273C108.339 25.1364 107.134 25.3409 105.778 25.3409ZM117.02 25V7.54545H121.009V10.4545H121.19C121.509 9.44697 122.054 8.67045 122.827 8.125C123.607 7.57197 124.497 7.29545 125.497 7.29545C125.724 7.29545 125.978 7.30682 126.259 7.32954C126.546 7.3447 126.785 7.37121 126.974 7.40909V11.1932C126.8 11.1326 126.524 11.0795 126.145 11.0341C125.774 10.9811 125.414 10.9545 125.065 10.9545C124.315 10.9545 123.641 11.1174 123.043 11.4432C122.452 11.7614 121.986 12.2045 121.645 12.7727C121.304 13.3409 121.134 13.9962 121.134 14.7386V25H117.02Z" fill="#FF6363"/>
<path d="M135.79 23.625V7.89773H139.358V23.625H135.79ZM129.71 17.5455V13.9773H145.438V17.5455H129.71Z" fill="#1E1E1E"/>
</svg>
