<svg width="157" height="132" viewBox="0 0 157 132" fill="none" xmlns="http://www.w3.org/2000/svg">
<rect width="157" height="132" rx="30" fill="white"/>
<path d="M59.8295 50.375C59.5114 47.3977 58.1705 45.0795 55.8068 43.4205C53.4659 41.7614 50.4205 40.9318 46.6705 40.9318C44.0341 40.9318 41.7727 41.3295 39.8864 42.125C38 42.9205 36.5568 44 35.5568 45.3636C34.5568 46.7273 34.0455 48.2841 34.0227 50.0341C34.0227 51.4886 34.3523 52.75 35.0114 53.8182C35.6932 54.8864 36.6136 55.7955 37.7727 56.5455C38.9318 57.2727 40.2159 57.8864 41.625 58.3864C43.0341 58.8864 44.4545 59.3068 45.8864 59.6477L52.4318 61.2841C55.0682 61.8977 57.6023 62.7273 60.0341 63.7727C62.4886 64.8182 64.6818 66.1364 66.6136 67.7273C68.5682 69.3182 70.1136 71.2386 71.25 73.4886C72.3864 75.7386 72.9545 78.375 72.9545 81.3977C72.9545 85.4886 71.9091 89.0909 69.8182 92.2045C67.7273 95.2955 64.7045 97.7159 60.75 99.4659C56.8182 101.193 52.0568 102.057 46.4659 102.057C41.0341 102.057 36.3182 101.216 32.3182 99.5341C28.3409 97.8523 25.2273 95.3977 22.9773 92.1705C20.75 88.9432 19.5455 85.0114 19.3636 80.375H31.8068C31.9886 82.8068 32.7386 84.8295 34.0568 86.4432C35.375 88.0568 37.0909 89.2614 39.2045 90.0568C41.3409 90.8523 43.7273 91.25 46.3636 91.25C49.1136 91.25 51.5227 90.8409 53.5909 90.0227C55.6818 89.1818 57.3182 88.0227 58.5 86.5455C59.6818 85.0455 60.2841 83.2955 60.3068 81.2955C60.2841 79.4773 59.75 77.9773 58.7045 76.7955C57.6591 75.5909 56.1932 74.5909 54.3068 73.7955C52.4432 72.9773 50.2614 72.25 47.7614 71.6136L39.8182 69.5682C34.0682 68.0909 29.5227 65.8523 26.1818 62.8523C22.8636 59.8295 21.2045 55.8182 21.2045 50.8182C21.2045 46.7045 22.3182 43.1023 24.5455 40.0114C26.7955 36.9205 29.8523 34.5227 33.7159 32.8182C37.5795 31.0909 41.9545 30.2273 46.8409 30.2273C51.7955 30.2273 56.1364 31.0909 59.8636 32.8182C63.6136 34.5227 66.5568 36.8977 68.6932 39.9432C70.8295 42.9659 71.9318 46.4432 72 50.375H59.8295Z" fill="#FF6363"/>
<path d="M104.276 89.8182V42.6364H114.98V89.8182H104.276ZM86.0369 71.5795V60.875H133.219V71.5795H86.0369Z" fill="#1E1E1E"/>
</svg>
