<svg width="157" height="188" viewBox="0 0 157 188" fill="none" xmlns="http://www.w3.org/2000/svg">
<rect width="157" height="188" rx="15" fill="white"/>
<path d="M59.8295 78.375C59.5114 75.3977 58.1705 73.0795 55.8068 71.4205C53.4659 69.7614 50.4205 68.9318 46.6705 68.9318C44.0341 68.9318 41.7727 69.3295 39.8864 70.125C38 70.9205 36.5568 72 35.5568 73.3636C34.5568 74.7273 34.0455 76.2841 34.0227 78.0341C34.0227 79.4886 34.3523 80.75 35.0114 81.8182C35.6932 82.8864 36.6136 83.7955 37.7727 84.5455C38.9318 85.2727 40.2159 85.8864 41.625 86.3864C43.0341 86.8864 44.4545 87.3068 45.8864 87.6477L52.4318 89.2841C55.0682 89.8977 57.6023 90.7273 60.0341 91.7727C62.4886 92.8182 64.6818 94.1364 66.6136 95.7273C68.5682 97.3182 70.1136 99.2386 71.25 101.489C72.3864 103.739 72.9545 106.375 72.9545 109.398C72.9545 113.489 71.9091 117.091 69.8182 120.205C67.7273 123.295 64.7045 125.716 60.75 127.466C56.8182 129.193 52.0568 130.057 46.4659 130.057C41.0341 130.057 36.3182 129.216 32.3182 127.534C28.3409 125.852 25.2273 123.398 22.9773 120.17C20.75 116.943 19.5455 113.011 19.3636 108.375H31.8068C31.9886 110.807 32.7386 112.83 34.0568 114.443C35.375 116.057 37.0909 117.261 39.2045 118.057C41.3409 118.852 43.7273 119.25 46.3636 119.25C49.1136 119.25 51.5227 118.841 53.5909 118.023C55.6818 117.182 57.3182 116.023 58.5 114.545C59.6818 113.045 60.2841 111.295 60.3068 109.295C60.2841 107.477 59.75 105.977 58.7045 104.795C57.6591 103.591 56.1932 102.591 54.3068 101.795C52.4432 100.977 50.2614 100.25 47.7614 99.6136L39.8182 97.5682C34.0682 96.0909 29.5227 93.8523 26.1818 90.8523C22.8636 87.8295 21.2045 83.8182 21.2045 78.8182C21.2045 74.7045 22.3182 71.1023 24.5455 68.0114C26.7955 64.9205 29.8523 62.5227 33.7159 60.8182C37.5795 59.0909 41.9545 58.2273 46.8409 58.2273C51.7955 58.2273 56.1364 59.0909 59.8636 60.8182C63.6136 62.5227 66.5568 64.8977 68.6932 67.9432C70.8295 70.9659 71.9318 74.4432 72 78.375H59.8295Z" fill="#FF6363"/>
<path d="M104.276 117.818V70.6364H114.98V117.818H104.276ZM86.0369 99.5795V88.875H133.219V99.5795H86.0369Z" fill="#1E1E1E"/>
</svg>
