<svg width="204" height="45" viewBox="0 0 204 45" fill="none" xmlns="http://www.w3.org/2000/svg">
<path d="M19.0138 11.2695C18.8647 9.87393 18.2362 8.78729 17.1282 8.00959C16.0309 7.23189 14.6033 6.84304 12.8455 6.84304C11.6097 6.84304 10.5497 7.02947 9.66548 7.40234C8.78125 7.77521 8.10476 8.28125 7.63601 8.92045C7.16726 9.55966 6.92756 10.2894 6.9169 11.1097C6.9169 11.7915 7.07138 12.3828 7.38033 12.8835C7.69993 13.3842 8.13139 13.8104 8.67472 14.1619C9.21804 14.5028 9.81996 14.7905 10.4805 15.0249C11.141 15.2592 11.8068 15.4563 12.478 15.6161L15.5462 16.3832C16.782 16.6708 17.9698 17.0597 19.1097 17.5497C20.2603 18.0398 21.2884 18.6577 22.1939 19.4034C23.1101 20.1491 23.8345 21.0494 24.3672 22.104C24.8999 23.1587 25.1662 24.3945 25.1662 25.8114C25.1662 27.729 24.6761 29.4176 23.696 30.8771C22.7159 32.326 21.299 33.4606 19.4453 34.2809C17.6023 35.0906 15.3704 35.4954 12.7496 35.4954C10.2035 35.4954 7.9929 35.1012 6.1179 34.3129C4.25355 33.5245 2.79403 32.3739 1.73935 30.8612C0.695313 29.3484 0.130682 27.5053 0.0454546 25.332H5.8782C5.96342 26.4719 6.31499 27.4201 6.93288 28.1765C7.55078 28.9329 8.35511 29.4975 9.34588 29.8704C10.3473 30.2433 11.4659 30.4297 12.7017 30.4297C13.9908 30.4297 15.12 30.2379 16.0895 29.8544C17.0696 29.4602 17.8366 28.9169 18.3906 28.2244C18.9446 27.5213 19.2269 26.701 19.2376 25.7635C19.2269 24.9112 18.9766 24.2081 18.4865 23.6541C17.9964 23.0895 17.3093 22.6207 16.4251 22.2479C15.5515 21.8643 14.5288 21.5234 13.3569 21.2251L9.63352 20.2663C6.93821 19.5739 4.80753 18.5245 3.24148 17.1183C1.68608 15.7013 0.908381 13.821 0.908381 11.4773C0.908381 9.549 1.4304 7.86044 2.47443 6.41158C3.52912 4.96271 4.962 3.83878 6.77308 3.03977C8.58416 2.23011 10.6349 1.82528 12.9254 1.82528C15.2479 1.82528 17.2827 2.23011 19.0298 3.03977C20.7876 3.83878 22.1673 4.95206 23.1687 6.37961C24.1701 7.79652 24.6868 9.42649 24.7188 11.2695H19.0138ZM45.8405 24.6768V10.4545H51.6253V35H46.0162V30.6374H45.7606C45.2066 32.0117 44.2957 33.1357 43.028 34.0092C41.7709 34.8828 40.2208 35.3196 38.3778 35.3196C36.7691 35.3196 35.3469 34.9627 34.1111 34.2489C32.8859 33.5245 31.9271 32.4751 31.2346 31.1009C30.5422 29.7159 30.1959 28.0433 30.1959 26.0831V10.4545H35.9807V25.1882C35.9807 26.7436 36.4069 27.9794 37.2591 28.8956C38.1114 29.8118 39.23 30.2699 40.615 30.2699C41.4672 30.2699 42.2929 30.0621 43.0919 29.6467C43.8909 29.2312 44.5461 28.6133 45.0574 27.793C45.5795 26.962 45.8405 25.9233 45.8405 24.6768ZM57.5739 44.2045V10.4545H63.2628V14.5135H63.5984C63.8967 13.9169 64.3175 13.283 64.8608 12.6119C65.4041 11.93 66.1392 11.3494 67.0661 10.87C67.9929 10.38 69.1754 10.1349 70.6136 10.1349C72.5099 10.1349 74.2198 10.6197 75.7433 11.5891C77.2773 12.5479 78.4918 13.9702 79.3867 15.8558C80.2923 17.7308 80.745 20.032 80.745 22.7592C80.745 25.4545 80.3029 27.745 79.4187 29.6307C78.5344 31.5163 77.3306 32.9545 75.8072 33.9453C74.2837 34.9361 72.5579 35.4315 70.6296 35.4315C69.2234 35.4315 68.0568 35.1971 67.13 34.7283C66.2031 34.2596 65.4574 33.695 64.8928 33.0344C64.3388 32.3633 63.9073 31.7294 63.5984 31.1328H63.3587V44.2045H57.5739ZM63.2468 22.7273C63.2468 24.3146 63.4705 25.7049 63.918 26.8981C64.3761 28.0913 65.0313 29.0234 65.8835 29.6946C66.7464 30.3551 67.7905 30.6854 69.0156 30.6854C70.294 30.6854 71.3647 30.3445 72.2276 29.6626C73.0906 28.9702 73.7404 28.0273 74.1772 26.8342C74.6246 25.6303 74.8484 24.2614 74.8484 22.7273C74.8484 21.2038 74.63 19.8509 74.1932 18.6683C73.7564 17.4858 73.1065 16.5589 72.2436 15.8878C71.3807 15.2166 70.3047 14.881 69.0156 14.881C67.7798 14.881 66.7305 15.206 65.8675 15.8558C65.0046 16.5057 64.3494 17.4165 63.902 18.5884C63.4652 19.7603 63.2468 21.1399 63.2468 22.7273ZM85.6989 44.2045V10.4545H91.3878V14.5135H91.7234C92.0217 13.9169 92.4425 13.283 92.9858 12.6119C93.5291 11.93 94.2642 11.3494 95.1911 10.87C96.1179 10.38 97.3004 10.1349 98.7386 10.1349C100.635 10.1349 102.345 10.6197 103.868 11.5891C105.402 12.5479 106.617 13.9702 107.512 15.8558C108.417 17.7308 108.87 20.032 108.87 22.7592C108.87 25.4545 108.428 27.745 107.544 29.6307C106.659 31.5163 105.456 32.9545 103.932 33.9453C102.409 34.9361 100.683 35.4315 98.7546 35.4315C97.3484 35.4315 96.1818 35.1971 95.255 34.7283C94.3281 34.2596 93.5824 33.695 93.0178 33.0344C92.4638 32.3633 92.0323 31.7294 91.7234 31.1328H91.4837V44.2045H85.6989ZM91.3718 22.7273C91.3718 24.3146 91.5955 25.7049 92.043 26.8981C92.5011 28.0913 93.1563 29.0234 94.0085 29.6946C94.8714 30.3551 95.9155 30.6854 97.1406 30.6854C98.419 30.6854 99.4897 30.3445 100.353 29.6626C101.216 28.9702 101.865 28.0273 102.302 26.8342C102.75 25.6303 102.973 24.2614 102.973 22.7273C102.973 21.2038 102.755 19.8509 102.318 18.6683C101.881 17.4858 101.232 16.5589 100.369 15.8878C99.5057 15.2166 98.4297 14.881 97.1406 14.881C95.9048 14.881 94.8555 15.206 93.9925 15.8558C93.1296 16.5057 92.4744 17.4165 92.027 18.5884C91.5902 19.7603 91.3718 21.1399 91.3718 22.7273ZM119.609 2.27273V35H113.824V2.27273H119.609ZM125.557 35V10.4545H131.342V35H125.557ZM128.466 6.97088C127.549 6.97088 126.761 6.66726 126.101 6.06001C125.44 5.44211 125.11 4.7017 125.11 3.83878C125.11 2.9652 125.44 2.22479 126.101 1.61754C126.761 0.999644 127.549 0.690695 128.466 0.690695C129.392 0.690695 130.181 0.999644 130.831 1.61754C131.491 2.22479 131.821 2.9652 131.821 3.83878C131.821 4.7017 131.491 5.44211 130.831 6.06001C130.181 6.66726 129.392 6.97088 128.466 6.97088ZM148.157 35.4794C145.696 35.4794 143.571 34.968 141.781 33.9453C140.002 32.9119 138.633 31.4524 137.674 29.5668C136.715 27.6705 136.236 25.4386 136.236 22.8711C136.236 20.3462 136.715 18.1303 137.674 16.2234C138.644 14.3058 139.997 12.8143 141.733 11.7489C143.47 10.6729 145.51 10.1349 147.854 10.1349C149.366 10.1349 150.794 10.38 152.136 10.87C153.489 11.3494 154.682 12.0952 155.716 13.1072C156.76 14.1193 157.58 15.4084 158.177 16.9744C158.773 18.5298 159.072 20.3835 159.072 22.5355V24.3093H138.953V20.4102H153.526C153.516 19.3022 153.276 18.3168 152.807 17.4538C152.339 16.5803 151.683 15.8931 150.842 15.3924C150.011 14.8917 149.041 14.6413 147.933 14.6413C146.751 14.6413 145.712 14.929 144.817 15.5043C143.922 16.0689 143.225 16.8146 142.724 17.7415C142.234 18.6577 141.983 19.6644 141.973 20.7617V24.1655C141.973 25.593 142.234 26.8182 142.756 27.8409C143.278 28.853 144.008 29.6307 144.945 30.174C145.883 30.7067 146.98 30.973 148.237 30.973C149.079 30.973 149.84 30.8558 150.522 30.6214C151.204 30.3764 151.795 30.0195 152.296 29.5508C152.797 29.082 153.175 28.5014 153.431 27.8089L158.832 28.4162C158.491 29.8437 157.841 31.0902 156.882 32.1555C155.934 33.2102 154.72 34.0305 153.239 34.6165C151.758 35.1918 150.064 35.4794 148.157 35.4794ZM163.965 35V10.4545H169.574V14.5455H169.83C170.278 13.1286 171.045 12.0366 172.131 11.2695C173.229 10.4918 174.48 10.103 175.887 10.103C176.206 10.103 176.563 10.119 176.957 10.1509C177.362 10.1722 177.698 10.2095 177.964 10.2628V15.5842C177.719 15.4989 177.33 15.4244 176.797 15.3604C176.275 15.2859 175.769 15.2486 175.279 15.2486C174.225 15.2486 173.277 15.4776 172.435 15.9357C171.604 16.3832 170.949 17.0064 170.469 17.8054C169.99 18.6044 169.75 19.5259 169.75 20.57V35H163.965Z" fill="#FF6363"/>
<path d="M190.361 33.0664V10.9499H195.378V33.0664H190.361ZM181.811 24.517V19.4993H203.928V24.517H181.811Z" fill="#1E1E1E"/>
</svg>
